<svg width="17" height="16" viewBox="0 0 17 16" fill="none" xmlns="http://www.w3.org/2000/svg">
<path d="M1.38889 8.88889H6.72222C7.21111 8.88889 7.61111 8.48889 7.61111 8V0.888889C7.61111 0.4 7.21111 0 6.72222 0H1.38889C0.9 0 0.5 0.4 0.5 0.888889V8C0.5 8.48889 0.9 8.88889 1.38889 8.88889ZM1.38889 16H6.72222C7.21111 16 7.61111 15.6 7.61111 15.1111V11.5556C7.61111 11.0667 7.21111 10.6667 6.72222 10.6667H1.38889C0.9 10.6667 0.5 11.0667 0.5 11.5556V15.1111C0.5 15.6 0.9 16 1.38889 16ZM10.2778 16H15.6111C16.1 16 16.5 15.6 16.5 15.1111V8C16.5 7.51111 16.1 7.11111 15.6111 7.11111H10.2778C9.78889 7.11111 9.38889 7.51111 9.38889 8V15.1111C9.38889 15.6 9.78889 16 10.2778 16ZM9.38889 0.888889V4.44444C9.38889 4.93333 9.78889 5.33333 10.2778 5.33333H15.6111C16.1 5.33333 16.5 4.93333 16.5 4.44444V0.888889C16.5 0.4 16.1 0 15.6111 0H10.2778C9.78889 0 9.38889 0.4 9.38889 0.888889Z" fill="#151515"/>
</svg>
