<svg width="21" height="18" viewBox="0 0 21 18" fill="none" xmlns="http://www.w3.org/2000/svg">
<path d="M12.5 5V3C12.5 2.46957 12.2893 1.96086 11.9142 1.58579C11.5391 1.21071 11.0304 1 10.5 1H3.5C2.96957 1 2.46086 1.21071 2.08579 1.58579C1.71071 1.96086 1.5 2.46957 1.5 3V15C1.5 15.5304 1.71071 16.0391 2.08579 16.4142C2.46086 16.7893 2.96957 17 3.5 17H10.5C11.0304 17 11.5391 16.7893 11.9142 16.4142C12.2893 16.0391 12.5 15.5304 12.5 15V13" stroke="black" stroke-width="2" stroke-linecap="round" stroke-linejoin="round"/>
<path d="M7.5 9H19.5M19.5 9L16.5 6M19.5 9L16.5 12" stroke="black" stroke-width="2" stroke-linecap="round" stroke-linejoin="round"/>
</svg>
