<svg width="17" height="12" viewBox="0 0 17 12" fill="none" xmlns="http://www.w3.org/2000/svg">
<path d="M13.5909 7.45449V1.63631C13.5909 0.836308 12.9364 0.181763 12.1364 0.181763H1.95455C1.15455 0.181763 0.5 0.836308 0.5 1.63631V7.45449C0.5 8.25449 1.15455 8.90904 1.95455 8.90904H12.1364C12.9364 8.90904 13.5909 8.25449 13.5909 7.45449ZM7.04545 6.72722C5.83818 6.72722 4.86364 5.75267 4.86364 4.5454C4.86364 3.33813 5.83818 2.36358 7.04545 2.36358C8.25273 2.36358 9.22727 3.33813 9.22727 4.5454C9.22727 5.75267 8.25273 6.72722 7.04545 6.72722ZM16.5 2.36358V10.3636C16.5 11.1636 15.8455 11.8181 15.0455 11.8181H2.68182V10.3636H15.0455V2.36358H16.5Z" fill="#151515"/>
</svg>
