<svg width="17" height="18" viewBox="0 0 17 18" fill="none" xmlns="http://www.w3.org/2000/svg">
<path fill-rule="evenodd" clip-rule="evenodd" d="M9.99811 0.707159C9.68654 0.579163 9.29076 0.579163 8.50005 0.579163C7.70933 0.579163 7.31355 0.579163 7.00198 0.707159C6.58722 0.877437 6.25706 1.20547 6.08411 1.61913C6.00496 1.80692 5.97464 2.0267 5.96201 2.34585C5.9564 2.57709 5.89189 2.80308 5.7746 3.00244C5.65731 3.2018 5.49111 3.36796 5.29171 3.48519C5.08856 3.59811 4.86018 3.65794 4.62775 3.65912C4.39532 3.66029 4.16636 3.60279 3.96207 3.49193C3.67744 3.34203 3.47113 3.25951 3.26735 3.23256C2.82151 3.17403 2.37059 3.29387 2.01265 3.56603C1.74486 3.76981 1.54697 4.11001 1.15204 4.78957C0.756259 5.46913 0.559211 5.80849 0.514581 6.14112C0.455635 6.58405 0.576895 7.03204 0.851414 7.38655C0.976042 7.54823 1.15204 7.68381 1.42403 7.85391C1.8257 8.10401 2.08338 8.5301 2.08338 8.99998C2.08338 9.46987 1.8257 9.89596 1.42487 10.1452C1.15204 10.3162 0.976042 10.4517 0.850572 10.6134C0.715066 10.7885 0.615605 10.9887 0.557935 11.2025C0.500265 11.4163 0.48553 11.6394 0.514581 11.8589C0.559211 12.1906 0.756259 12.5308 1.15204 13.2104C1.54782 13.89 1.74486 14.2293 2.01265 14.4339C2.36969 14.7059 2.82104 14.8255 3.26735 14.7674C3.47113 14.7405 3.67744 14.6579 3.96207 14.508C4.16646 14.397 4.39558 14.3394 4.62818 14.3406C4.86077 14.3418 5.0893 14.4017 5.29256 14.5148C5.70181 14.7506 5.94433 15.1842 5.96201 15.6541C5.97464 15.9741 6.00496 16.1931 6.08411 16.3808C6.2559 16.7935 6.58599 17.1219 7.00198 17.2928C7.31355 17.4208 7.70933 17.4208 8.50005 17.4208C9.29076 17.4208 9.68654 17.4208 9.99811 17.2928C10.4129 17.1225 10.743 16.7945 10.916 16.3808C10.9951 16.1931 11.0255 15.9741 11.0381 15.6541C11.0549 15.1842 11.2983 14.7497 11.7084 14.5148C11.9115 14.4019 12.1399 14.342 12.3723 14.3409C12.6048 14.3397 12.8337 14.3972 13.038 14.508C13.3227 14.6579 13.529 14.7405 13.7327 14.7674C14.179 14.8264 14.6304 14.7059 14.9874 14.4339C15.2552 14.2302 15.4531 13.89 15.8481 13.2104C16.2438 12.5308 16.4409 12.1915 16.4855 11.8589C16.5144 11.6393 16.4996 11.4162 16.4418 11.2024C16.3839 10.9886 16.2843 10.7885 16.1487 10.6134C16.0241 10.4517 15.8481 10.3162 15.5761 10.1461C15.1744 9.89596 14.9167 9.46987 14.9167 8.99998C14.9167 8.5301 15.1744 8.10401 15.5752 7.85475C15.8481 7.68381 16.024 7.54823 16.1495 7.38655C16.285 7.21145 16.3845 7.01123 16.4422 6.79746C16.4998 6.58369 16.5146 6.36061 16.4855 6.14112C16.4409 5.80933 16.2438 5.46913 15.8481 4.78957C15.4523 4.11001 15.2552 3.77065 14.9874 3.56603C14.6295 3.29387 14.1786 3.17403 13.7327 3.23256C13.529 3.25951 13.3227 3.34203 13.038 3.49193C12.8336 3.60294 12.6045 3.66052 12.3719 3.65935C12.1393 3.65817 11.9108 3.59826 11.7075 3.48519C11.5083 3.36785 11.3423 3.20165 11.2251 3.0023C11.108 2.80294 11.0436 2.57701 11.0381 2.34585C11.0255 2.02586 10.9951 1.80692 10.916 1.61913C10.8304 1.41429 10.7053 1.22831 10.5478 1.07183C10.3903 0.915349 10.2035 0.791433 9.99811 0.707159ZM8.50005 11.5262C9.90632 11.5262 11.0457 10.3953 11.0457 8.99998C11.0457 7.60465 9.90548 6.47374 8.50005 6.47374C7.09377 6.47374 5.95443 7.60465 5.95443 8.99998C5.95443 10.3953 7.09461 11.5262 8.50005 11.5262Z" fill="#151515"/>
</svg>
