<svg width="17" height="16" viewBox="0 0 17 16" fill="none" xmlns="http://www.w3.org/2000/svg">
<path d="M6.29636 8.9545C6.36213 8.93315 6.43107 8.92305 6.50002 8.92305C8.2902 8.92305 9.74029 10.3792 9.73077 12.1717C9.72673 12.9292 9.10394 13.5384 8.34616 13.5384H1.88465C1.12687 13.5384 0.504085 12.9292 0.500047 12.1717C0.490527 10.3792 1.94062 8.92305 3.7308 8.92305C3.79974 8.92305 3.86839 8.93315 3.93416 8.9545C4.3083 9.07594 4.70147 9.15382 5.11541 9.15382C5.52935 9.15382 5.92252 9.07594 6.29636 8.9545Z" fill="#151515"/>
<path d="M7.88462 5.23076C7.88462 6.76018 6.64482 7.99998 5.11541 7.99998C3.58599 7.99998 2.34619 6.76018 2.34619 5.23076C2.34619 3.70135 3.58599 2.46155 5.11541 2.46155C6.64482 2.46155 7.88462 3.70135 7.88462 5.23076Z" fill="#151515"/>
<path d="M10.6538 12.1766C10.6511 12.6895 10.4803 13.1597 10.1952 13.5384H15.1153C15.8731 13.5384 16.4959 12.9292 16.5 12.1717C16.5095 10.3792 15.0594 8.92305 13.2692 8.92305C13.2003 8.92305 13.1313 8.93315 13.0655 8.9545C12.6917 9.07594 12.2985 9.15382 11.8846 9.15382C11.4707 9.15382 11.0775 9.07594 10.7033 8.9545C10.6376 8.93315 10.5689 8.92305 10.5 8.92305C10.0954 8.92305 9.70823 8.99742 9.35132 9.13323C10.1584 9.89541 10.6602 10.9775 10.6538 12.1766Z" fill="#151515"/>
<path d="M11.8846 7.99998C13.414 7.99998 14.6538 6.76018 14.6538 5.23076C14.6538 3.70135 13.414 2.46155 11.8846 2.46155C10.3552 2.46155 9.11538 3.70135 9.11538 5.23076C9.11538 6.76018 10.3552 7.99998 11.8846 7.99998Z" fill="#151515"/>
</svg>
