<svg width="33" height="40" viewBox="0 0 33 40" fill="none" xmlns="http://www.w3.org/2000/svg">
<path fill-rule="evenodd" clip-rule="evenodd" d="M28.3503 12.8921C27.9062 12.9766 27.4479 13.0208 26.9792 13.0208C22.9521 13.0208 19.6875 9.75624 19.6875 5.72917C19.6875 5.62248 19.6898 5.51632 19.6943 5.41075C18.6481 5.14014 17.5638 4.99998 16.4653 5C13.0454 5 9.76561 6.35855 7.34738 8.77678C4.92915 11.195 3.5706 14.4748 3.5706 17.8947V24.8284L0.214283 31.5411L0.129546 31.7345C0.0142932 32.0411 -0.0248938 32.3711 0.0153436 32.6963C0.0555809 33.0214 0.174043 33.3319 0.360578 33.6012C0.547112 33.8705 0.796158 34.0905 1.08637 34.2425C1.37659 34.3944 1.69932 34.4738 2.02692 34.4737H30.9038L31.1156 34.4626C31.4413 34.4284 31.7538 34.3158 32.0265 34.1344C32.2991 33.953 32.5238 33.7083 32.6811 33.4211C32.8385 33.1339 32.9239 32.8128 32.93 32.4854C32.9362 32.158 32.8629 31.8339 32.7164 31.5411L29.3601 24.8284V17.8947L29.3527 17.4526C29.2984 15.8695 28.9537 14.3256 28.3503 12.8921ZM21.0089 38.8221C21.6409 38.1405 21.9919 37.2453 21.9917 36.3158H10.939L10.9482 36.5921C11.0179 37.519 11.4354 38.3852 12.117 39.0172C12.7985 39.6493 13.6937 40.0003 14.6232 40H18.3074L18.5838 39.9908C19.5106 39.9211 20.3769 39.5036 21.0089 38.8221Z" fill="#009A40"/>
<path d="M32.0833 5.72917C32.0833 8.54812 29.7981 10.8333 26.9792 10.8333C24.1602 10.8333 21.875 8.54812 21.875 5.72917C21.875 2.91021 24.1602 0.625 26.9792 0.625C29.7981 0.625 32.0833 2.91021 32.0833 5.72917Z" fill="#ECBA13"/>
</svg>
