<svg width="40" height="40" viewBox="0 0 40 40" fill="none" xmlns="http://www.w3.org/2000/svg">
<rect width="40" height="40" rx="19" fill="white"/>
<path d="M10.5591 10.5591C10.9172 10.2011 11.4028 10 11.9092 10C12.4155 10 12.9011 10.2011 13.2592 10.5591L20.0115 17.3114L26.7638 10.5591C27.124 10.2113 27.6063 10.0188 28.107 10.0231C28.6077 10.0275 29.0866 10.2283 29.4407 10.5824C29.7947 10.9364 29.9956 11.4154 29.9999 11.916C30.0043 12.4167 29.8118 12.8991 29.464 13.2592L22.7117 20.0115L29.464 26.7638C29.8118 27.124 30.0043 27.6063 29.9999 28.107C29.9956 28.6077 29.7947 29.0866 29.4407 29.4407C29.0866 29.7947 28.6077 29.9956 28.107 29.9999C27.6063 30.0043 27.124 29.8118 26.7638 29.464L20.0115 22.7117L13.2592 29.464C12.8991 29.8118 12.4167 30.0043 11.916 29.9999C11.4154 29.9956 10.9364 29.7947 10.5824 29.4407C10.2283 29.0866 10.0275 28.6077 10.0231 28.107C10.0188 27.6063 10.2113 27.124 10.5591 26.7638L17.3114 20.0115L10.5591 13.2592C10.2011 12.9011 10 12.4155 10 11.9092C10 11.4028 10.2011 10.9172 10.5591 10.5591Z" fill="#009A40"/>
</svg>
