<svg width="64" height="65" viewBox="0 0 64 65" fill="none" xmlns="http://www.w3.org/2000/svg">
<rect y="0.5" width="64" height="64" rx="32" fill="#FF0000"/>
<path d="M50.1274 41.0299L47.2351 36.3517L47.7454 34.1888L43.6136 27.5057L41.4506 26.9955L38.5584 22.3174L35.8851 23.9701L47.4542 42.6826L50.1274 41.0299Z" fill="white"/>
<path d="M17.0155 23.491C16.1819 23.491 15.3825 23.8221 14.7931 24.4115C14.2037 25.0009 13.8726 25.8003 13.8726 26.6339V39.2053C13.8726 40.0388 14.2037 40.8382 14.7931 41.4276C15.3825 42.017 16.1819 42.3482 17.0155 42.3482H35.8726V23.491L17.0155 23.491Z" fill="white"/>
<path d="M39.5154 42.491C40.8962 42.491 42.0154 41.3717 42.0154 39.991C42.0154 38.6103 40.8962 37.491 39.5154 37.491C38.1347 37.491 37.0154 38.6103 37.0154 39.991C37.0154 41.3717 38.1347 42.491 39.5154 42.491Z" fill="white"/>
</svg>
