<svg width="25" height="20" viewBox="0 0 25 20" fill="none" xmlns="http://www.w3.org/2000/svg">
<path d="M24.0359 18C24.0359 19.1046 23.1405 20 22.0359 20H2.03593C0.931364 20 0.0359344 19.1046 0.0359344 18C0.0359344 16.8954 0.931365 16 2.03593 16H22.0359C23.1405 16 24.0359 16.8954 24.0359 18ZM24.0359 10C24.0359 11.1046 23.1405 12 22.0359 12H2.03593C0.931364 12 0.0359344 11.1046 0.0359344 10C0.0359344 8.89543 0.931365 8 2.03593 8H22.0359C23.1405 8 24.0359 8.89543 24.0359 10ZM24.0359 2C24.0359 3.10457 23.1405 4 22.0359 4H2.03593C0.931364 4 0.0359344 3.10457 0.0359344 2C0.0359344 0.895431 0.931365 0 2.03593 0H22.0359C23.1405 0 24.0359 0.895431 24.0359 2Z" fill="#009A40"/>
</svg>
