<svg width="16" height="16" viewBox="0 0 16 16" fill="none" xmlns="http://www.w3.org/2000/svg">
<path d="M10.5533 14.3158C10.5535 14.7407 10.393 15.15 10.1041 15.4615C9.81515 15.7731 9.41914 15.9639 8.99543 15.9958L8.86912 16H7.18491C6.76 16.0001 6.35074 15.8397 6.03918 15.5507C5.72762 15.2618 5.53677 14.8658 5.50491 14.4421L5.50069 14.3158H10.5533ZM8.02701 8.03425e-10C9.55541 -2.52169e-05 11.0241 0.593595 12.1232 1.65564C13.2223 2.71769 13.866 4.16513 13.9184 5.69263L13.9217 5.89474V9.06442L15.4561 12.1331C15.523 12.2669 15.5565 12.4151 15.5537 12.5648C15.5509 12.7144 15.5119 12.8612 15.4399 12.9925C15.368 13.1238 15.2653 13.2357 15.1407 13.3186C15.016 13.4015 14.8732 13.453 14.7243 13.4686L14.6274 13.4737H1.42659C1.27683 13.4737 1.1293 13.4375 0.996628 13.368C0.863958 13.2985 0.750109 13.1979 0.664835 13.0748C0.579562 12.9517 0.525408 12.8098 0.507014 12.6611C0.48862 12.5125 0.506534 12.3617 0.559221 12.2215L0.597958 12.1331L2.13227 9.06442V5.89474C2.13227 4.33136 2.75332 2.83201 3.8588 1.72653C4.96428 0.621051 6.46363 8.03426e-10 8.02701 8.03425e-10Z" fill="#151515"/>
</svg>
