<svg width="29" height="27" viewBox="0 0 29 27" fill="none" xmlns="http://www.w3.org/2000/svg">
<path d="M11.0866 13.64C14.719 13.64 17.6635 10.6955 17.6635 7.06309C17.6635 3.43073 14.719 0.486206 11.0866 0.486206C7.45423 0.486206 4.5097 3.43073 4.5097 7.06309C4.5097 10.6955 7.45423 13.64 11.0866 13.64Z" fill="white"/>
<path d="M14.375 15.8323C14.2113 15.8323 14.0476 15.8563 13.8914 15.907C13.0035 16.1954 12.0697 16.3804 11.0866 16.3804C10.1035 16.3804 9.1697 16.1954 8.28114 15.907C8.12494 15.8563 7.96188 15.8323 7.79815 15.8323C3.54646 15.8323 0.102503 19.2906 0.125111 23.5478C0.134702 25.3468 1.61382 26.7938 3.41356 26.7938H18.7596C20.5594 26.7938 22.0385 25.3468 22.0481 23.5478C22.0707 19.2906 18.6267 15.8323 14.375 15.8323Z" fill="white"/>
<path d="M23.875 2.86121C24.2949 2.86121 24.6977 3.02802 24.9946 3.32495C25.2915 3.62189 25.4583 4.02461 25.4583 4.44454V6.02787H27.0417C27.4616 6.02787 27.8643 6.19469 28.1613 6.49162C28.4582 6.78855 28.625 7.19128 28.625 7.61121C28.625 8.03113 28.4582 8.43386 28.1613 8.73079C27.8643 9.02772 27.4616 9.19454 27.0417 9.19454H25.4583V10.7779C25.4583 11.1978 25.2915 11.6005 24.9946 11.8975C24.6977 12.1944 24.2949 12.3612 23.875 12.3612C23.4551 12.3612 23.0523 12.1944 22.7554 11.8975C22.4585 11.6005 22.2917 11.1978 22.2917 10.7779V9.19454H20.7083C20.2884 9.19454 19.8857 9.02772 19.5887 8.73079C19.2918 8.43386 19.125 8.03113 19.125 7.61121C19.125 7.19128 19.2918 6.78855 19.5887 6.49162C19.8857 6.19469 20.2884 6.02787 20.7083 6.02787H22.2917V4.44454C22.2917 4.02461 22.4585 3.62189 22.7554 3.32495C23.0523 3.02802 23.4551 2.86121 23.875 2.86121Z" fill="white"/>
</svg>
