<svg width="24" height="24" viewBox="0 0 24 24" fill="none" xmlns="http://www.w3.org/2000/svg">
<g clip-path="url(#clip0_34_415)">
<path d="M26.5 14.0007H8.71L14.155 7.46066C14.4096 7.15433 14.5321 6.75941 14.4955 6.36277C14.459 5.96613 14.2663 5.60027 13.96 5.34566C13.6537 5.09105 13.2588 4.96856 12.8621 5.00513C12.4655 5.0417 12.0996 5.23433 11.845 5.54066L4.345 14.5407C4.29454 14.6122 4.24942 14.6874 4.21 14.7657C4.21 14.8407 4.21 14.8857 4.105 14.9607C4.03701 15.1326 4.00141 15.3157 4 15.5007C4.00141 15.6856 4.03701 15.8687 4.105 16.0407C4.105 16.1157 4.105 16.1607 4.21 16.2357C4.24942 16.3139 4.29454 16.3891 4.345 16.4607L11.845 25.4607C11.986 25.63 12.1626 25.7662 12.3623 25.8595C12.5619 25.9528 12.7796 26.001 13 26.0007C13.3505 26.0013 13.6901 25.8793 13.96 25.6557C14.1119 25.5297 14.2374 25.3751 14.3295 25.2006C14.4215 25.026 14.4782 24.8351 14.4963 24.6386C14.5144 24.4422 14.4936 24.244 14.435 24.0556C14.3765 23.8672 14.2813 23.6922 14.155 23.5407L8.71 17.0007H26.5C26.8978 17.0007 27.2794 16.8426 27.5607 16.5613C27.842 16.28 28 15.8985 28 15.5007C28 15.1028 27.842 14.7213 27.5607 14.44C27.2794 14.1587 26.8978 14.0007 26.5 14.0007Z" fill="#009A40"/>
</g>
<defs>
<clipPath id="clip0_34_415">
<rect width="24" height="24" fill="white"/>
</clipPath>
</defs>
</svg>
