<svg width="20" height="12" viewBox="0 0 20 12" fill="none" xmlns="http://www.w3.org/2000/svg">
<path d="M0.440231 0.672004C0.722196 0.389485 1.10457 0.230774 1.50327 0.230774C1.90197 0.230774 2.28434 0.389485 2.56631 0.672004L10.0091 8.13166L17.4518 0.672004C17.7354 0.397491 18.1152 0.245593 18.5095 0.249027C18.9037 0.252461 19.2808 0.410951 19.5596 0.690361C19.8384 0.969771 19.9965 1.34775 19.9999 1.74288C20.0034 2.13801 19.8518 2.51868 19.5779 2.8029L11.0721 11.328C10.7902 11.6105 10.4078 11.7692 10.0091 11.7692C9.61038 11.7692 9.228 11.6105 8.94604 11.328L0.440231 2.8029C0.158351 2.5203 0 2.13706 0 1.73745C0 1.33785 0.158351 0.954608 0.440231 0.672004Z" fill="black"/>
</svg>
